<?xml version="1.0" encoding="UTF-8" standalone="no"?>
<!-- Created with Inkscape (http://www.inkscape.org/) -->

<svg
   width="1000mm"
   height="1000.0001mm"
   viewBox="0 0 999.99999 1000"
   version="1.1"
   id="svg1"
   xml:space="preserve"
   xmlns:xlink="http://www.w3.org/1999/xlink"
   xmlns="http://www.w3.org/2000/svg"
   xmlns:svg="http://www.w3.org/2000/svg"
   xmlns:rdf="http://www.w3.org/1999/02/22-rdf-syntax-ns#"
   xmlns:cc="http://creativecommons.org/ns#"
   xmlns:dc="http://purl.org/dc/elements/1.1/"><defs
     id="defs1"><linearGradient
       id="linearGradient43"><stop
         style="stop-color:#ff6a1a;stop-opacity:1;"
         offset="0"
         id="stop44" /><stop
         style="stop-color:#d34516;stop-opacity:0.78431374;"
         offset="0.54600328"
         id="stop46" /><stop
         style="stop-color:#8c2f0a;stop-opacity:0.78431374;"
         offset="1"
         id="stop47" /></linearGradient><linearGradient
       xlink:href="#linearGradient43"
       id="linearGradient45"
       x1="515.4314"
       y1="183.01311"
       x2="515.4314"
       y2="854.633"
       gradientUnits="userSpaceOnUse" /><linearGradient
       xlink:href="#linearGradient43"
       id="linearGradient35"
       gradientUnits="userSpaceOnUse"
       x1="515.4314"
       y1="183.01311"
       x2="515.4314"
       y2="854.633" /><linearGradient
       xlink:href="#linearGradient43"
       id="linearGradient36"
       gradientUnits="userSpaceOnUse"
       x1="515.4314"
       y1="183.01311"
       x2="515.4314"
       y2="854.633" /><linearGradient
       xlink:href="#linearGradient43"
       id="linearGradient38"
       gradientUnits="userSpaceOnUse"
       x1="515.4314"
       y1="183.01311"
       x2="515.4314"
       y2="854.633" /><linearGradient
       xlink:href="#linearGradient43"
       id="linearGradient39"
       gradientUnits="userSpaceOnUse"
       x1="515.4314"
       y1="183.01311"
       x2="515.4314"
       y2="854.633" /><linearGradient
       xlink:href="#linearGradient43"
       id="linearGradient40"
       gradientUnits="userSpaceOnUse"
       x1="515.4314"
       y1="183.01311"
       x2="515.4314"
       y2="854.633" /><linearGradient
       xlink:href="#linearGradient43"
       id="linearGradient41"
       gradientUnits="userSpaceOnUse"
       x1="515.4314"
       y1="183.01311"
       x2="515.4314"
       y2="854.633" /><linearGradient
       xlink:href="#linearGradient43"
       id="linearGradient44"
       gradientUnits="userSpaceOnUse"
       x1="515.4314"
       y1="183.01311"
       x2="515.4314"
       y2="854.633" /><linearGradient
       xlink:href="#linearGradient43"
       id="linearGradient46"
       gradientUnits="userSpaceOnUse"
       x1="515.4314"
       y1="183.01311"
       x2="515.4314"
       y2="854.633" /><linearGradient
       xlink:href="#linearGradient43"
       id="linearGradient47"
       gradientUnits="userSpaceOnUse"
       x1="515.4314"
       y1="183.01311"
       x2="515.4314"
       y2="854.633" /><linearGradient
       xlink:href="#linearGradient43"
       id="linearGradient48"
       gradientUnits="userSpaceOnUse"
       x1="515.4314"
       y1="183.01311"
       x2="515.4314"
       y2="854.633" /><linearGradient
       xlink:href="#linearGradient43"
       id="linearGradient49"
       gradientUnits="userSpaceOnUse"
       x1="515.4314"
       y1="183.01311"
       x2="515.4314"
       y2="854.633" /><linearGradient
       xlink:href="#linearGradient43"
       id="linearGradient50"
       gradientUnits="userSpaceOnUse"
       x1="515.4314"
       y1="183.01311"
       x2="515.4314"
       y2="854.633" /><linearGradient
       xlink:href="#linearGradient43"
       id="linearGradient51"
       gradientUnits="userSpaceOnUse"
       x1="515.4314"
       y1="183.01311"
       x2="515.4314"
       y2="854.633" /><linearGradient
       xlink:href="#linearGradient43"
       id="linearGradient52"
       gradientUnits="userSpaceOnUse"
       x1="515.4314"
       y1="183.01311"
       x2="515.4314"
       y2="854.633" /><linearGradient
       xlink:href="#linearGradient43"
       id="linearGradient53"
       gradientUnits="userSpaceOnUse"
       x1="515.4314"
       y1="183.01311"
       x2="515.4314"
       y2="854.633" /><linearGradient
       xlink:href="#linearGradient43"
       id="linearGradient54"
       gradientUnits="userSpaceOnUse"
       x1="515.4314"
       y1="183.01311"
       x2="515.4314"
       y2="854.633" /><linearGradient
       xlink:href="#linearGradient43"
       id="linearGradient55"
       gradientUnits="userSpaceOnUse"
       x1="515.4314"
       y1="183.01311"
       x2="515.4314"
       y2="854.633" /><linearGradient
       xlink:href="#linearGradient43"
       id="linearGradient56"
       gradientUnits="userSpaceOnUse"
       x1="515.4314"
       y1="183.01311"
       x2="515.4314"
       y2="854.633" /><linearGradient
       xlink:href="#linearGradient43"
       id="linearGradient57"
       gradientUnits="userSpaceOnUse"
       x1="515.4314"
       y1="183.01311"
       x2="515.4314"
       y2="854.633" /><linearGradient
       xlink:href="#linearGradient43"
       id="linearGradient58"
       gradientUnits="userSpaceOnUse"
       x1="515.4314"
       y1="183.01311"
       x2="515.4314"
       y2="854.633" /><linearGradient
       xlink:href="#linearGradient43"
       id="linearGradient59"
       gradientUnits="userSpaceOnUse"
       x1="515.4314"
       y1="183.01311"
       x2="515.4314"
       y2="854.633" /><linearGradient
       xlink:href="#linearGradient43"
       id="linearGradient60"
       gradientUnits="userSpaceOnUse"
       x1="515.4314"
       y1="183.01311"
       x2="515.4314"
       y2="854.633" /><linearGradient
       xlink:href="#linearGradient43"
       id="linearGradient61"
       gradientUnits="userSpaceOnUse"
       x1="515.4314"
       y1="183.01311"
       x2="515.4314"
       y2="854.633" /><linearGradient
       xlink:href="#linearGradient43"
       id="linearGradient62"
       gradientUnits="userSpaceOnUse"
       x1="515.4314"
       y1="183.01311"
       x2="515.4314"
       y2="854.633" /><linearGradient
       xlink:href="#linearGradient43"
       id="linearGradient63"
       gradientUnits="userSpaceOnUse"
       x1="515.4314"
       y1="183.01311"
       x2="515.4314"
       y2="854.633" /><linearGradient
       xlink:href="#linearGradient43"
       id="linearGradient64"
       gradientUnits="userSpaceOnUse"
       x1="515.4314"
       y1="183.01311"
       x2="515.4314"
       y2="854.633" /><linearGradient
       xlink:href="#linearGradient43"
       id="linearGradient65"
       gradientUnits="userSpaceOnUse"
       x1="515.4314"
       y1="183.01311"
       x2="515.4314"
       y2="854.633" /><linearGradient
       xlink:href="#linearGradient43"
       id="linearGradient66"
       gradientUnits="userSpaceOnUse"
       x1="515.4314"
       y1="183.01311"
       x2="515.4314"
       y2="854.633" /><linearGradient
       xlink:href="#linearGradient43"
       id="linearGradient67"
       gradientUnits="userSpaceOnUse"
       x1="515.4314"
       y1="183.01311"
       x2="515.4314"
       y2="854.633" /><linearGradient
       xlink:href="#linearGradient43"
       id="linearGradient68"
       gradientUnits="userSpaceOnUse"
       x1="515.4314"
       y1="183.01311"
       x2="515.4314"
       y2="854.633" /></defs><metadata
     id="metadata1"><rdf:RDF><cc:Work
         rdf:about=""><dc:format>image/svg+xml</dc:format><dc:type
           rdf:resource="http://purl.org/dc/dcmitype/StillImage" /></cc:Work></rdf:RDF></metadata><g
     id="g7"
     transform="matrix(1.0703765,0,0,1.0703765,-51.705639,-55.336012)"
     style="fill:url(#linearGradient45);fill-opacity:1;stroke:none;stroke-opacity:1"><path
       fill="#000000"
       opacity="1"
       stroke="none"
       d="m 357.99994,582.27466 c -8.83109,0.007 -17.17694,-0.28351 -25.48795,0.12854 -5.26809,0.26117 -7.06802,-2.26026 -7.84027,-6.80359 -1.17157,-6.89264 -0.10791,-13.64453 1.35288,-20.28217 6.88638,-31.29034 20.28125,-59.38147 41.17557,-83.87133 14.99887,-17.57993 34.25387,-28.2974 55.6755,-35.65271 7.86237,-2.69965 15.91763,-4.84647 23.91434,-7.14292 5.26349,-1.5115 5.90283,-2.65243 3.89929,-7.83664 -1.2605,-3.26156 -2.70209,-6.46338 -3.7753,-9.78482 -1.61093,-4.98572 0.62796,-9.77276 5.14282,-11.53695 4.86261,-1.90009 9.72675,0.0784 11.92548,5.11517 1.8634,4.26868 3.59213,8.61215 5.08157,13.02347 1.38227,4.09387 3.72208,5.72152 8.20642,5.29718 13.41382,-1.26929 26.83802,-2.79605 40.35154,-2.10147 10.96685,0.56372 21.93627,1.17132 32.87829,2.07653 4.25055,0.35169 6.59314,-1.11123 7.79114,-5.10464 1.099,-3.66318 2.45422,-7.25095 3.74042,-10.85626 2.21649,-6.21296 6.45977,-9.08506 11.52423,-7.84616 4.42657,1.08291 7.37268,6.84487 6.19775,12.67703 -0.62189,3.08673 -1.68439,6.09286 -2.66546,9.09698 -1.46015,4.47129 0.14263,6.82303 4.68237,7.90256 10.20264,2.42621 20.12726,5.73566 30.01831,9.26767 30.3974,10.85464 51.94049,31.71671 67.90717,59.03391 11.86975,20.30767 20.17492,41.96759 24.08978,65.22222 0.86157,5.11762 1.00903,10.24982 -0.35895,15.35065 -0.85284,3.18005 -2.71143,4.69196 -6.09009,4.68451 -25.65954,-0.0564 -51.3194,-0.0695 -76.97888,-0.002 -2.9118,0.008 -4.59991,-1.43879 -6.09345,-3.59876 -6.15777,-8.90509 -12.34606,-17.78906 -18.52746,-26.67773 -5.58679,-8.03357 -8.22882,-7.87213 -12.7702,0.66485 -9.07312,17.05603 -18.18018,34.09412 -27.30793,51.12104 -0.75665,1.41143 -1.16998,3.19818 -3.13537,3.69775 -2.1441,-1.0224 -2.0293,-3.31055 -2.62067,-5.08454 -10.68683,-32.05603 -21.29516,-64.13812 -31.91601,-96.21615 -0.20917,-0.63181 -0.30799,-1.30493 -0.56025,-1.91681 -0.85339,-2.07043 -1.95977,-3.96841 -4.49438,-4.15268 -2.84,-0.20639 -3.61893,2.05927 -4.30902,4.08505 -2.7908,8.19272 -5.45932,16.42704 -8.19223,24.63956 -8.35678,25.11237 -16.71659,50.22363 -25.10254,75.32623 -0.40555,1.21405 -1.07126,2.34119 -1.5976,3.46967 -2.52731,-0.48145 -2.85882,-2.56403 -3.6842,-4.06683 -9.54025,-17.37018 -19.02319,-34.77204 -28.48706,-52.18409 -3.73218,-6.8667 -6.10812,-7.05908 -10.51117,-0.79016 -6.31821,8.99567 -12.76004,17.9065 -18.94888,26.98993 -2.2905,3.36176 -4.96558,4.78088 -9.11328,4.7207 -14.82605,-0.21508 -29.65708,-0.0828 -44.98627,-0.0817 z"
       id="path1"
       style="fill:url(#linearGradient35);fill-opacity:1;stroke:none;stroke-opacity:1" /><path
       fill="#000000"
       opacity="1"
       stroke="none"
       d="m 496,690.17041 c -18.49072,-0.3006 -36.48526,-0.46399 -54.4704,-0.96533 -8.1228,-0.22638 -15.90906,-2.40344 -22.49493,-7.32343 -31.53238,-23.55591 -60.66834,-49.53491 -82.50864,-82.76617 -1.00552,-1.52997 -1.96942,-3.08936 -2.89267,-4.67017 -0.3233,-0.55359 -0.4657,-1.21295 -0.68652,-1.81262 1.57858,-2.40863 3.92608,-1.66663 5.95102,-1.67108 22.16607,-0.0494 44.3341,-0.19098 66.49716,0.0695 5.58841,0.0657 9.21374,-1.47583 12.27295,-6.40754 5.15381,-8.30841 11.14075,-16.10003 16.65308,-23.93249 3.51336,0.39923 3.9689,3.03021 5.01751,4.95007 10.06253,18.42286 20.04306,36.89057 30.08765,55.32324 1.32651,2.43433 2.39334,5.70569 5.88077,5.28907 3.44006,-0.41089 3.77978,-3.88172 4.6379,-6.48487 9.95533,-30.1994 19.84302,-60.4212 29.77527,-90.62829 0.74607,-2.26917 1.13797,-4.75598 2.92762,-6.68042 2.26355,1.43469 2.3681,3.5683 2.97058,5.37445 9.95813,29.85229 19.87725,59.71771 29.80511,89.58014 0.31513,0.94806 0.5788,1.91699 0.95526,2.84003 0.98261,2.40936 1.29676,5.64495 4.52021,6.00091 3.32922,0.36768 4.21856,-2.75732 5.44622,-5.04852 10.07135,-18.79669 20.10175,-37.61536 30.16108,-56.41852 0.84295,-1.57568 1.31622,-3.46704 3.27697,-4.25403 2.17139,0.19855 2.86682,2.10822 3.87885,3.53327 5.20953,7.33587 10.52417,14.60839 15.42004,22.151 2.28034,3.51306 4.9798,4.78119 9.05524,4.75781 23.66534,-0.13562 47.33173,-0.0875 70.9978,-0.0751 2.09308,10e-4 4.32544,-0.52051 6.45319,1.23724 -1.19623,4.10297 -3.81562,7.33368 -6.13715,10.68024 -19.67718,28.36517 -44.85852,51.27081 -71.48175,72.89172 -12.04803,9.78442 -25.10327,13.64807 -40.49579,13.90247 -26.99389,0.44604 -53.98346,0.31915 -81.47363,0.55743 z"
       id="path2"
       style="fill:url(#linearGradient36);fill-opacity:1;stroke:none;stroke-opacity:1" /><path
       fill="#000000"
       opacity="1"
       stroke="none"
       d="m 695.19397,247.5379 c 36.47516,20.17368 60.74164,49.13257 68.54645,90.51795 4.518,23.95694 -4.41602,40.61712 -28.80347,52.30319 -13.42224,6.43167 -27.70862,9.13016 -42.66901,7.03348 -5.51654,-0.77317 -10.03601,-3.53855 -13.95758,-7.22711 -20.08178,-18.88874 -28.00921,-42.64362 -27.62127,-69.6717 0.0507,-3.53317 2.00708,-5.94973 4.82348,-7.67874 4.96106,-3.0455 9.90296,-6.15329 15.0575,-8.84286 4.45343,-2.32373 7.06103,-5.74704 8.55804,-10.45374 4.15528,-13.06427 7.09839,-26.28195 6.97229,-40.11156 -0.0749,-8.20878 0.97602,-8.74842 9.09357,-5.86891 z"
       id="path3"
       style="fill:url(#linearGradient38);fill-opacity:1;stroke:none;stroke-opacity:1" /><path
       fill="#000000"
       opacity="1"
       stroke="none"
       d="m 270.41025,321.60016 c 15.30197,-44.87323 71.68161,-87.5138 104.23782,-77.68996 -23.358,17.65953 -34.42926,40.46123 -27.96072,68.90795 6.41974,28.23211 25.74392,44.46704 54.17862,50.67053 -2.81461,5.72433 -7.32779,8.66903 -11.5033,11.72644 -18.51239,13.55511 -38.86777,22.83292 -62.17001,22.85303 -16.30087,0.0141 -31.23337,-5.15122 -44.64716,-15.03486 -15.15268,-11.16488 -19.22146,-25.97271 -16.42901,-43.595 0.93789,-5.9187 2.30151,-11.75409 4.29376,-17.83813 z"
       id="path4"
       style="fill:url(#linearGradient39);fill-opacity:1;stroke:none;stroke-opacity:1" /><path
       fill="#000000"
       opacity="1"
       stroke="none"
       d="m 354.58398,309.05438 c -3.0274,-21.21963 2.25,-39.40176 18.81727,-52.7746 15.92556,-12.85485 32.45202,-25.02513 49.25228,-36.72383 33.73642,-23.49202 80.37787,-3.10841 86.67234,37.65075 3.55285,23.00631 -4.48172,41.46932 -22.78409,55.60195 -2.8938,2.23453 -5.92569,4.29419 -8.95139,6.34983 -0.47067,0.31979 -1.25171,0.18277 -2.32467,0.30771 -0.6446,-2.66425 -1.1399,-5.24396 -1.89988,-7.7432 -1.66284,-5.46811 -5.12585,-9.68765 -9.67608,-13.00033 -3.16519,-2.30432 -2.86496,-4.61017 -0.26172,-6.95359 1.72626,-1.55401 3.62817,-2.91711 5.48538,-4.32077 11.44296,-8.64834 14.03427,-22.91916 6.25015,-34.49603 -7.73028,-11.49684 -23.51754,-15.75201 -34.75003,-8.12277 -15.8265,10.7496 -31.26461,22.13101 -46.29672,33.96869 -9.64023,7.59158 -11.94992,19.22085 -7.59433,29.7015 4.34805,10.46253 14.44565,16.82703 25.71765,16.18509 5.70871,-0.3251 10.56113,-2.79803 15.02057,-6.15924 5.05252,-3.80826 10.12277,-7.59765 15.06922,-11.54086 5.10537,-4.06988 10.37744,-5.08646 16.09848,-1.43478 5.2236,3.33413 8.4822,10.84793 7.39157,16.9403 -0.53446,2.98548 -1.11261,6.16919 -3.6763,7.98652 -10.14618,7.1925 -19.08966,16.27743 -31.01413,20.7221 -33.06665,12.32514 -66.61332,-5.11191 -75.8678,-39.29846 -0.2171,-0.80203 -0.40546,-1.61188 -0.67777,-2.84598 z"
       id="path5"
       style="fill:url(#linearGradient40);fill-opacity:1;stroke:none;stroke-opacity:1" /><path
       fill="#000000"
       opacity="1"
       stroke="none"
       d="m 592.53662,227.2925 c 22.18182,-5.67751 43.54974,-3.79101 64.63001,3.45613 5.22345,1.79574 10.07049,4.32757 14.83056,7.08813 3.5011,2.0304 5.09143,5.00345 5.31067,8.98293 0.83368,15.12968 -1.07642,29.84721 -6.36554,44.08568 -0.70331,1.89334 -1.50464,3.70715 -3.33392,4.82315 -5.82239,3.55197 -11.63898,7.11328 -17.4621,10.66403 -2.69086,1.64077 -4.31433,0.65722 -5.33746,-2.09622 -1.21576,-3.27152 -2.39453,-6.56897 -3.84223,-9.73969 -4.13745,-9.06183 -11.12634,-14.85004 -20.81836,-17.06604 -4.07769,-0.93237 -6.99328,-2.78085 -8.51275,-6.75528 -3.24713,-8.4935 -10.08222,-13.09341 -18.20593,-15.83862 -7.74207,-2.61623 -15.72461,-4.26041 -24.02271,-2.93694 -1.46283,0.23329 -3.00537,0.26203 -4.47504,0.0855 -2.00824,-0.24115 -4.02276,-0.80618 -4.80145,-3.00212 -0.73163,-2.06335 0.6189,-3.54698 1.87225,-4.84141 8.34888,-8.62275 18.7381,-13.62505 30.534,-16.90927 z"
       id="path6"
       style="fill:url(#linearGradient41);fill-opacity:1;stroke:none;stroke-opacity:1" /><path
       fill="#000000"
       opacity="1"
       stroke="none"
       d="m 760.65979,381.79205 c 3.26056,-3.78415 4.99029,-1.75824 6.42755,1.22599 4.75806,9.8796 7.06744,20.45297 7.98785,31.2561 1.44977,17.01669 -0.81371,33.53137 -8.34124,49.07202 -5.87268,12.12418 -13.32465,17.24515 -23.8216,15.83853 -9.3554,-1.25363 -17.4544,-5.38592 -21.77697,-14.07297 -7.77527,-15.62557 -15.00391,-31.55444 -20.30872,-48.21444 -3.10999,-9.767 -2.34345,-10.31363 7.74024,-11.12076 20.14996,-1.61285 37.67278,-9.04523 52.09289,-23.98447 z"
       id="path7"
       style="fill:url(#linearGradient44);fill-opacity:1;stroke:none;stroke-opacity:1" /><path
       fill="#000000"
       opacity="1"
       stroke="none"
       d="m 324.90594,429.77325 c -5.04373,11.10199 -9.72876,21.95072 -14.86529,32.58124 -5.14868,10.65576 -14.06299,16.14621 -25.76981,16.92588 -7.69217,0.51226 -13.68191,-2.85105 -17.41888,-9.49323 -15.93199,-28.31799 -15.59056,-57.39487 -3.61841,-86.90295 1.30417,-3.21451 3.27411,-4.07593 5.94141,-1.16501 15.44165,16.8518 35.23791,23.72314 57.45923,24.88482 3.34222,0.17475 4.27032,1.55219 3.91842,4.74204 -0.70529,6.39291 -3.22034,12.1867 -5.64667,18.42721 z"
       id="path8"
       style="fill:url(#linearGradient46);fill-opacity:1;stroke:none;stroke-opacity:1" /><path
       fill="#000000"
       opacity="1"
       stroke="none"
       d="m 650.5669,365.45996 c 3.53924,6.73688 6.9215,13.12924 10.30639,19.52652 -2.8504,2.11386 -5.31213,1.40283 -7.62994,0.6293 -41.5857,-13.87909 -74.18457,-37.90432 -90.315,-80.37219 -2.97461,-7.83151 -4.3169,-16.04971 -4.88672,-24.38446 -0.10059,-1.47131 0.11584,-2.98968 0.37243,-4.45358 0.30756,-1.754 1.2414,-3.13291 3.14685,-3.4346 1.67285,-0.2649 2.94727,0.61081 3.79938,1.91995 1.45172,2.23029 2.80792,4.52744 4.11279,6.84787 14.34211,25.50406 36.57001,37.80441 65.38868,38.90674 4.04406,0.15469 6.43017,0.92276 6.77307,5.74139 0.94799,13.32056 3.28515,26.40171 8.93207,39.07306 z"
       id="path9"
       style="fill:url(#linearGradient47);fill-opacity:1;stroke:none;stroke-opacity:1" /><path
       fill="#000000"
       opacity="1"
       stroke="none"
       d="m 771.43433,605.27051 c 6.68872,5.90698 5.78466,18.52649 -1.45758,25.63208 -5.45374,5.35083 -12.69977,6.31988 -19.63312,7.8432 -26.66327,5.85809 -53.77704,8.63983 -80.8761,11.4602 -2.52814,0.26307 -5.20532,0.68543 -8.08539,-0.38214 0.44879,-0.85693 0.61127,-1.52752 1.0329,-1.91968 9.77869,-9.09429 18.6709,-18.9776 26.52008,-29.78411 1.3667,-1.8816 3.21899,-2.7428 5.36096,-3.34803 19.0556,-5.38403 38.26776,-9.97302 58.0799,-11.52978 6.33831,-0.49811 12.64373,-0.49683 19.05835,2.02826 z"
       id="path10"
       style="fill:url(#linearGradient48);fill-opacity:1;stroke:none;stroke-opacity:1" /><path
       fill="#000000"
       opacity="1"
       stroke="none"
       d="m 346.42889,648.80054 c -24.89788,-2.84272 -49.25808,-6.17365 -73.30194,-11.55671 -13.07098,-2.92639 -18.77655,-9.98376 -18.47232,-23.19262 0.14249,-6.18689 2.54709,-8.90448 8.69528,-10.30097 6.9874,-1.58715 13.97828,-0.6632 20.88446,0.10584 16.89621,1.88159 33.46186,5.48303 49.64826,10.74902 2.246,0.73072 4.4335,1.50867 5.86084,3.54816 7.38849,10.55694 16.55469,19.56165 25.25735,28.97217 0.54328,0.5874 0.92517,1.32409 1.76511,2.55041 -7.02881,1.68036 -13.44461,-0.59546 -20.33704,-0.8753 z"
       id="path11"
       style="fill:url(#linearGradient49);fill-opacity:1;stroke:none;stroke-opacity:1" /><path
       fill="#000000"
       opacity="1"
       stroke="none"
       d="m 734.94611,673.35535 c 2.98931,11.96289 -6.54316,23.74121 -19.18604,23.78759 -10.16571,0.0374 -20.21832,-1.6983 -30.28711,-2.93902 -18.17578,-2.23963 -36.21008,-5.30341 -53.9613,-9.88349 -3.60413,-0.92974 -3.60004,-0.94561 -6.34918,-3.1925 8.15228,-6.89172 16.24371,-13.73572 24.34088,-20.57294 1.22943,-1.03814 2.79937,-1.17645 4.25952,-1.19946 24.01233,-0.37836 47.97266,-0.12823 71.18524,7.27142 3.81781,1.21704 7.59631,2.646 9.99799,6.7284 z"
       id="path12"
       style="fill:url(#linearGradient50);fill-opacity:1;stroke:none;stroke-opacity:1" /><path
       fill="#000000"
       opacity="1"
       stroke="none"
       d="m 393.8418,673.13892 c 3.21344,3.10296 7.05771,4.99108 9.6419,8.57611 -2.08563,2.54498 -5.11163,2.59417 -7.69745,3.22552 -25.09414,6.1272 -50.61447,9.6601 -76.29791,12.07214 -12.09686,1.13611 -20.7576,-4.22326 -23.88211,-14.39758 -2.26568,-7.37774 -0.29257,-11.85187 6.77747,-14.87286 9.27884,-3.96484 19.17251,-5.61853 29.06723,-6.80969 12.05899,-1.45179 24.21155,-1.84687 36.37719,-1.95319 6.48597,-0.0567 12.04273,1.19232 16.65729,6.12042 2.71372,2.8982 6.03821,5.22449 9.35639,8.03913 z"
       id="path13"
       style="fill:url(#linearGradient51);fill-opacity:1;stroke:none;stroke-opacity:1" /><path
       fill="#000000"
       opacity="1"
       stroke="none"
       d="m 754.62378,574.68854 c -17.29443,10.86749 -34.78882,20.58081 -53.16296,28.82477 -1.30542,-2.55701 0.35827,-3.66785 1.17614,-4.93628 7.00214,-10.85944 12.02344,-22.27552 9.96552,-35.63245 -0.53363,-3.46381 0.83002,-5.50067 3.6629,-7.3681 12.08521,-7.96686 24.0929,-16.03754 37.78931,-21.10865 0.31128,-0.11529 0.60382,-0.28125 0.91522,-0.39618 10.00684,-3.69152 15.44006,-2.93066 18.82794,2.63306 5.13123,8.42652 4.23517,19.70795 -2.30408,25.83844 -4.99041,4.67865 -10.82037,8.27252 -16.86999,12.14539 z"
       id="path14"
       style="fill:url(#linearGradient52);fill-opacity:1;stroke:none;stroke-opacity:1" /><path
       fill="#000000"
       opacity="1"
       stroke="none"
       d="m 746.44067,495.41541 c -11.32446,11.96212 -24.55084,20.88647 -38.03668,29.47802 -2.83459,1.80591 -4.83655,2.21253 -6.40783,-1.79944 -5.90143,-15.06796 -13.30506,-29.39141 -22.73041,-42.57858 -2.23871,-3.13229 -2.03028,-5.20431 0.94439,-7.52148 6.45826,-5.03077 11.53888,-11.4903 17.40168,-17.14383 6.02173,-5.80683 7.4978,-5.53665 10.68402,2.04831 4.11175,9.78796 8.84662,19.05041 18.80157,24.3439 5.05438,2.68768 10.25549,4.63888 16.08307,4.78546 2.50037,0.0629 5.96387,-1.01916 7.06824,2.01022 0.93982,2.57807 -2.02442,4.23755 -3.80805,6.37742 z"
       id="path15"
       style="fill:url(#linearGradient53);fill-opacity:1;stroke:none;stroke-opacity:1" /><path
       fill="#000000"
       opacity="1"
       stroke="none"
       d="m 306.91885,551.0484 c 1.70298,1.09796 3.04056,2.12042 4.51651,2.87048 4.3476,2.20929 5.84867,5.73175 4.75019,10.32788 -2.59684,10.86493 1.0491,20.31025 6.47149,29.38239 1.66263,2.7818 3.3545,5.54608 5.58271,9.22638 -4.20493,-0.46442 -6.58713,-2.36566 -9.13047,-3.65881 -19.59417,-9.96204 -38.86224,-20.51093 -56.65649,-33.49622 -9.2543,-6.75336 -11.52747,-16.39514 -6.88886,-26.95764 2.65476,-6.04505 6.27829,-8.04962 12.71573,-6.66638 12.09616,2.59918 22.40894,9.12671 32.89536,15.23669 1.86676,1.08771 3.6304,2.3523 5.74383,3.73523 z"
       id="path16"
       style="fill:url(#linearGradient54);fill-opacity:1;stroke:none;stroke-opacity:1" /><path
       fill="#000000"
       opacity="1"
       stroke="none"
       d="m 343.86246,488.80322 c -7.00669,11.0199 -12.57385,22.36984 -17.2439,34.15271 -1.30069,3.2818 -2.7901,4.08447 -5.9068,2.04303 -13.39749,-8.77533 -26.28522,-18.19964 -37.83807,-29.33554 -1.9718,-1.90066 -4.3201,-3.71722 -4.53437,-6.89661 1.83503,-2.09414 4.30277,-1.68444 6.5354,-1.76016 15.98362,-0.54181 26.81565,-8.66522 33.61204,-22.72897 1.44644,-2.9931 2.60183,-6.12549 3.97964,-9.1535 1.97467,-4.33967 3.57687,-4.77466 6.99426,-1.4729 5.50525,5.31884 10.66251,11.00103 16.22336,16.2583 6.53442,6.1777 6.64618,6.04724 1.60871,13.5437 -1.11368,1.65738 -2.158,3.36139 -3.43027,5.34994 z"
       id="path17"
       style="fill:url(#linearGradient55);fill-opacity:1;stroke:none;stroke-opacity:1" /><path
       fill="#000000"
       opacity="1"
       stroke="none"
       d="m 808.65082,557.3811 c 8.01349,9.83722 15.22363,19.81891 21.84912,30.21839 1.15759,1.81701 2.21802,3.72589 3.07287,5.70068 3.84461,8.88129 2.65656,14.24579 -4.15863,19.36176 -7.27557,5.46154 -14.4096,5.40612 -21.45452,-0.27002 -5.72443,-4.61231 -8.85468,-11.17267 -12.60914,-17.23365 -5.34814,-8.63372 -10.26001,-17.51672 -14.44165,-26.78521 -0.67981,-1.50672 -1.65972,-3.08265 -0.71606,-4.74341 4.64526,-8.17566 4.8512,-16.73004 2.43195,-26.05695 11.23687,3.19672 18.44891,11.46015 26.02606,19.80841 z"
       id="path18"
       style="fill:url(#linearGradient56);fill-opacity:1;stroke:none;stroke-opacity:1" /><path
       fill="#000000"
       opacity="1"
       stroke="none"
       d="m 803.85779,668.4021 c 1.09198,7.49188 2.53558,14.49731 2.72363,21.68524 0.21393,8.1759 -2.34241,12.16913 -9.8822,14.7251 -7.3761,2.50043 -14.88477,0.50738 -18.93671,-4.94122 -2.66205,-3.57978 -3.91791,-7.70533 -4.67547,-11.98236 -2.49762,-14.09931 -3.75403,-28.33106 -4.43183,-42.62598 -0.14746,-3.10968 0.69336,-5.22522 3.47998,-7.04541 5.87146,-3.83539 8.86975,-9.75269 10.47125,-16.43146 0.33729,-1.40661 -0.003,-3.07068 1.85822,-4.08057 3.74219,1.20954 5.29724,4.6363 6.89807,7.8064 5.52222,10.93604 8.04993,22.84149 10.84833,34.646 0.6131,2.58606 1.04553,5.2149 1.64673,8.24426 z"
       id="path19"
       style="fill:url(#linearGradient57);fill-opacity:1;stroke:none;stroke-opacity:1" /><path
       fill="#000000"
       opacity="1"
       stroke="none"
       d="m 222.07233,557.08844 c 7.12405,-8.07977 14.12336,-15.75024 23.97668,-19.61023 1.95038,1.83429 1.11319,3.29401 0.83591,4.68634 -1.36882,6.87323 -1.2876,13.58191 2.53409,19.75372 1.38191,2.23175 1.42103,4.32556 0.27024,6.58399 -6.95005,13.63928 -14.16523,27.15387 -23.35688,39.42755 -7.89827,10.54651 -18.04631,11.61352 -26.91156,3.43756 -5.22998,-4.82336 -6.29528,-10.22461 -3.0951,-17.19592 4.0513,-8.82526 10.07235,-16.41974 15.66162,-24.26282 3.08332,-4.3266 6.55542,-8.37604 10.085,-12.82019 z"
       id="path20"
       style="fill:url(#linearGradient58);fill-opacity:1;stroke:none;stroke-opacity:1" /><path
       fill="#000000"
       opacity="1"
       stroke="none"
       d="m 226.80839,701.10791 c -4.23056,-5.02704 -3.62152,-10.75897 -2.89472,-16.09088 2.27056,-16.65698 5.37597,-33.1825 10.85015,-49.13941 2.30994,-6.73333 4.92112,-13.39923 10.6323,-18.08093 2.54764,0.95148 2.38333,3.05463 2.7509,4.71387 1.50015,6.77136 4.64871,12.45886 10.45082,16.44812 1.93716,1.33203 2.92825,2.88562 2.87369,5.37628 -0.33979,15.51257 -1.94629,30.88971 -5.16776,46.05652 -1.60937,7.5769 -5.31451,13.88507 -13.80273,15.24908 -5.6351,0.90552 -10.87204,-0.68951 -15.69265,-4.53265 z"
       id="path21"
       style="fill:url(#linearGradient59);fill-opacity:1;stroke:none;stroke-opacity:1" /><path
       fill="#000000"
       opacity="1"
       stroke="none"
       d="m 716.28259,713.36249 c 1.23114,-6.17292 3.97193,-10.04206 10.26386,-11.63513 5.25097,-1.32953 9.0473,-5.36933 11.93481,-10.06501 0.92035,-1.49676 1.22699,-3.51611 3.55554,-4.41143 3.91797,3.76782 3.91651,9.0111 4.06989,13.73712 0.60364,18.5943 -2.68176,36.72693 -8.17847,54.40551 -3.05462,9.82453 -8.77319,13.18329 -16.95544,11.22718 -10.06525,-2.40625 -14.8487,-8.79859 -13.73523,-18.7348 1.32239,-11.80054 5.1449,-22.97547 9.04504,-34.52344 z"
       id="path22"
       style="fill:url(#linearGradient60);fill-opacity:1;stroke:none;stroke-opacity:1" /><path
       fill="#000000"
       opacity="1"
       stroke="none"
       d="m 322.76392,743.65008 c 1.89593,14.25208 -2.51465,20.96222 -14.64405,22.89106 -6.99032,1.11163 -11.47928,-1.26904 -14.27957,-7.93805 -4.74899,-11.31006 -6.32931,-23.3833 -8.07922,-35.38373 -1.46845,-10.07043 -1.96091,-20.18842 -0.0595,-30.28363 0.55093,-2.92499 0.59048,-2.91754 2.94369,-5.39929 1.63886,0.16656 1.96622,1.63403 2.5994,2.7359 3.64071,6.33581 8.69333,10.9071 15.92004,12.70532 2.68842,0.66895 4.25257,2.24811 5.14228,4.85486 3.97448,11.64459 8.09201,23.2428 10.45697,35.81756 z"
       id="path23"
       style="fill:url(#linearGradient61);fill-opacity:1;stroke:none;stroke-opacity:1" /><path
       fill="#000000"
       opacity="1"
       stroke="none"
       d="m 783.46906,715.86609 c 0.38134,-2.20337 1.20379,-4.10706 3.1264,-3.67712 5.82696,1.30273 11.09955,-1.06305 16.47595,-2.18659 8.14246,16.32678 -12.3302,65.89233 -30.88049,75.28961 -0.76782,-0.28906 -0.99048,-0.92779 -0.7594,-1.59753 7.53784,-21.83954 11.14837,-44.37268 12.03754,-67.82837 z"
       id="path24"
       style="fill:url(#linearGradient62);fill-opacity:1;stroke:none;stroke-opacity:1" /><path
       fill="#000000"
       opacity="1"
       stroke="none"
       d="m 256.49252,775.57202 c 0.91419,3.17084 2.16712,5.8739 2.23416,9.2359 -4.40818,-0.96307 -6.62211,-4.01953 -8.97296,-6.65234 -12.63707,-14.15271 -19.83177,-30.89166 -23.04519,-49.45825 -0.85238,-4.92475 -1.17919,-9.88398 -1.01017,-14.8866 0.1014,-3.00165 1.07534,-4.41888 4.29921,-3.13269 4.06049,1.62 8.21378,2.39069 12.66526,1.74622 4.65109,-0.67347 4.42973,3.03991 4.57106,5.94281 0.49249,10.11492 1.32771,20.17822 2.9111,30.19708 1.42926,9.04358 3.66836,17.86584 6.34753,27.00787 z"
       id="path25"
       style="fill:url(#linearGradient63);fill-opacity:1;stroke:none;stroke-opacity:1" /><path
       fill="#000000"
       opacity="1"
       stroke="none"
       d="m 848.05322,681.75275 c -1.60193,4.16711 -1.98919,8.44683 -4.95489,11.5758 -2.1687,-0.60553 -2.07898,-2.31506 -2.22003,-3.67755 -2.12683,-20.53375 -7.87677,-40.07794 -15.79132,-59.07214 -2.93818,-7.05127 -2.7707,-7.18146 4.05395,-10.33936 2.77832,-1.28558 5.22174,-2.98315 7.21063,-5.25689 2.65406,-3.034 4.32935,-2.06458 5.89264,1.05426 4.383,8.74438 6.51471,18.12438 8.00092,27.69445 1.97039,12.68695 0.90326,25.21155 -2.1919,38.02143 z"
       id="path26"
       style="fill:url(#linearGradient64);fill-opacity:1;stroke:none;stroke-opacity:1" /><path
       fill="#000000"
       opacity="1"
       stroke="none"
       d="m 690.58398,795.6015 c 4.61139,-7.94708 9.15027,-15.52203 13.40558,-23.25311 2.11554,-3.84351 4.42584,-5.07465 8.32483,-2.3692 2.47461,1.71704 5.39557,2.48663 8.38086,3.07538 5.64545,1.1134 5.92279,1.88488 3.4148,7.29809 -5.6604,12.21759 -14.53144,21.85455 -24.61811,30.47168 -8.84808,7.5589 -18.91906,12.99182 -29.99261,16.55084 -1.04291,0.33521 -2.11298,1.15656 -4.23938,-0.36212 8.68066,-10.17822 17.84466,-19.92743 25.32403,-31.41156 z"
       id="path27"
       style="fill:url(#linearGradient65);fill-opacity:1;stroke:none;stroke-opacity:1" /><path
       fill="#000000"
       opacity="1"
       stroke="none"
       d="m 183.41388,628.66809 c 1.31636,-4.72815 2.93301,-8.89777 4.99022,-12.90735 1.34083,-2.61328 2.90606,-3.71301 5.21499,-1.05676 2.90108,3.33758 6.39396,5.78467 10.56134,7.26117 3.63866,1.28918 2.90139,3.86346 1.92243,6.5069 -4.38178,11.83178 -9.52857,23.41839 -12.03084,35.8659 -1.73149,8.61328 -3.17805,17.28406 -4.72807,25.93341 -0.19705,1.09967 -0.0233,2.31482 -1.08602,3.09961 -7.14068,-5.56604 -12.62304,-37.52948 -4.84405,-64.70288 z"
       id="path28"
       style="fill:url(#linearGradient66);fill-opacity:1;stroke:none;stroke-opacity:1" /><path
       fill="#000000"
       opacity="1"
       stroke="none"
       d="m 337.3858,815.67633 c -17.57489,-12.40558 -31.68393,-31.68915 -32.21661,-41.42462 5.35745,-1.25781 10.81814,-2.55872 15.88663,-5.12976 2.37698,-1.20581 3.51336,1.10473 4.53366,2.81964 3.91827,6.58588 7.70407,13.25275 11.72668,19.7738 6.84854,11.10205 15.06827,21.15619 23.90799,30.72205 1.3132,1.4209 3.11609,2.55823 3.3602,5.59412 -10.28366,-1.69117 -18.68079,-6.7168 -27.19855,-12.35523 z"
       id="path29"
       style="fill:url(#linearGradient67);fill-opacity:1;stroke:none;stroke-opacity:1" /><path
       fill="#000000"
       opacity="1"
       stroke="none"
       d="m 392.77298,298.1532 c 0.85083,-8.94077 6.57077,-13.83405 13.10724,-18.15021 2.52383,-1.66656 4.44604,-1.28067 5.43744,1.61755 3.53564,10.33628 4.53018,21.0076 3.85901,31.85514 -0.17197,2.7789 -2.32889,2.84402 -4.41657,2.7233 -10.4443,-0.60404 -16.905,-6.9357 -17.98712,-18.04578 z"
       id="path30"
       style="display:inline;fill:url(#linearGradient68);fill-opacity:1;stroke:none;stroke-opacity:1" /></g></svg>
